<svg width="90" height="24" viewBox="0 0 90 24" fill="none" xmlns="http://www.w3.org/2000/svg">
<g clip-path="url(#clip0_4_8)">
<path d="M86.2201 5.63265V16.54C86.1445 16.6907 85.9555 16.7849 85.7854 16.7661L75.0126 6.4427C74.2944 5.35008 69.3994 4.37049 69.3805 8.28885V20.4961H74.1999V11.2276C74.181 10.8132 74.8047 10.7755 75.1449 11.0769L84.8782 20.2889C87.3351 21.3626 89.9811 20.3642 90.0189 17.4443V5.63265H86.2201Z" fill="white"/>
<path d="M19.0697 6.48038H13.9101L4.9139 11.4349V7.04553C4.23352 4.74725 0.850483 4.76609 0 7.02669V20.4772H4.9139V14.8257L13.1919 20.4961H19.6934L7.50315 13.1491L19.0697 6.48038Z" fill="white"/>
<path d="M33.5657 5.53846C31.9971 5.23705 30.4662 6.29199 29.181 8.23234L20.3927 20.4772H26.1004L28.9164 16.5212H38.1205L40.8043 20.4772H45.2835L36.4952 7.79906C35.5691 6.4427 34.5674 5.72684 33.5657 5.53846ZM33.5657 13.8085H30.8064L32.9231 10.6436C33.131 10.3799 33.3389 10.2292 33.5657 10.248C33.8303 10.2857 34.0571 10.4364 34.1894 10.6625L36.3251 13.8085H33.5657Z" fill="white"/>
<path d="M58.3431 8.00628V10.022C58.3431 11.303 57.3036 12.3579 55.9996 12.3579C54.6955 12.3579 53.6749 11.303 53.6749 10.022V8.00628C50.8967 9.28728 49.706 12.584 50.9912 15.3344C52.2764 18.0848 55.5838 19.2904 58.3431 18.0094C61.1025 16.7284 62.3121 13.4317 61.0269 10.6813C60.4788 9.49451 59.5338 8.55259 58.3431 8.00628Z" fill="white"/>
<path d="M58.362 2.33595V5.40659C62.5955 6.66876 64.9958 11.1334 63.7106 15.3532C62.4443 19.573 57.9651 21.9655 53.7316 20.6845C49.517 19.4035 47.1168 14.9576 48.383 10.7378C49.139 8.23234 51.0857 6.25432 53.5993 5.44427V2.37363C47.6837 3.72998 43.9983 9.5887 45.3591 15.4851C46.7199 21.3815 52.5976 25.0549 58.5132 23.6986C64.4288 22.3422 68.1142 16.4835 66.7535 10.5871C65.8085 6.4427 62.5199 3.22135 58.362 2.33595Z" fill="#FF7B0F"/>
<path d="M55.9996 10.7755C56.5288 10.7755 56.9446 10.3611 56.9446 9.8336V0.941915C57.0013 0.433281 56.6422 -0.0376766 56.113 -0.11303C55.5838 -0.188383 55.1302 0.188383 55.0546 0.715856C55.0546 0.791209 55.0546 0.866562 55.0546 0.941915V9.8336C55.0735 10.3611 55.4893 10.7755 55.9996 10.7755Z" fill="#FF7B0F"/>
</g>
<defs>
<clipPath id="clip0_4_8">
<rect width="90" height="24" fill="white"/>
</clipPath>
</defs>
</svg>
